<svg width="31" height="31" viewBox="0 0 31 31" fill="none" xmlns="http://www.w3.org/2000/svg">
<g clip-path="url(#clip0_471_1719)">
<path fill-rule="evenodd" clip-rule="evenodd" d="M25.2998 10.4633L18.7911 3.95463C18.6166 3.7803 18.3799 3.68247 18.1333 3.68266H6.97549C5.94845 3.68266 5.11587 4.51524 5.11587 5.54229V25.9982C5.11587 27.0252 5.94845 27.8578 6.97549 27.8578H23.7121C24.7392 27.8578 25.5718 27.0252 25.5718 25.9982V11.1212C25.572 10.8745 25.4741 10.6379 25.2998 10.4633ZM19.0631 6.85681L22.3976 10.1914H19.0631V6.85681ZM23.7121 25.9982H6.97549V5.54229H17.2034V11.1212C17.2034 11.6347 17.6197 12.051 18.1333 12.051H23.7121V25.9982ZM19.9929 16.7001C19.9929 17.2136 19.5766 17.6299 19.0631 17.6299H11.6246C11.111 17.6299 10.6947 17.2136 10.6947 16.7001C10.6947 16.1865 11.111 15.7702 11.6246 15.7702H19.0631C19.5766 15.7702 19.9929 16.1865 19.9929 16.7001ZM19.9929 20.4193C19.9929 20.9328 19.5766 21.3491 19.0631 21.3491H11.6246C11.111 21.3491 10.6947 20.9328 10.6947 20.4193C10.6947 19.9058 11.111 19.4895 11.6246 19.4895H19.0631C19.5766 19.4895 19.9929 19.9058 19.9929 20.4193Z" fill="black"/>
</g>
<defs>
<clipPath id="clip0_471_1719">
<rect width="29.754" height="29.754" fill="white" transform="translate(0.466797 0.893173)"/>
</clipPath>
</defs>
</svg>
