<svg width="31" height="31" viewBox="0 0 31 31" fill="none" xmlns="http://www.w3.org/2000/svg">
<g clip-path="url(#clip0_471_1733)">
<path fill-rule="evenodd" clip-rule="evenodd" d="M26.5016 6.48831H4.18605C3.67253 6.48831 3.25624 6.9046 3.25624 7.41812V23.225C3.25624 24.252 4.08882 25.0846 5.11587 25.0846H25.5718C26.5988 25.0846 27.4314 24.252 27.4314 23.225V7.41812C27.4314 6.9046 27.0151 6.48831 26.5016 6.48831ZM15.3438 16.385L6.57684 8.34793H24.1108L15.3438 16.385ZM11.9395 15.7864L5.11587 22.0406V9.53228L11.9395 15.7864ZM13.3157 17.0475L14.7104 18.3318C15.066 18.6583 15.6123 18.6583 15.968 18.3318L17.3627 17.0475L24.1038 23.225H6.57684L13.3157 17.0475ZM18.7481 15.7864L25.5718 9.53112V22.0418L18.7481 15.7864Z" fill="black"/>
</g>
<defs>
<clipPath id="clip0_471_1733">
<rect width="29.754" height="29.754" fill="white" transform="translate(0.466797 0.909363)"/>
</clipPath>
</defs>
</svg>
