<svg width="31" height="31" viewBox="0 0 31 31" fill="none" xmlns="http://www.w3.org/2000/svg">
<g clip-path="url(#clip0_471_1740)">
<path fill-rule="evenodd" clip-rule="evenodd" d="M21.1552 4.13674C18.7551 4.13674 16.6537 5.16883 15.3438 6.91339C14.0339 5.16883 11.9326 4.13674 9.53248 4.13674C5.55454 4.14122 2.33091 7.36486 2.32642 11.3428C2.32642 19.4787 14.3896 26.0641 14.9033 26.336C15.1783 26.484 15.5093 26.484 15.7843 26.336C16.298 26.0641 28.3612 19.4787 28.3612 11.3428C28.3567 7.36486 25.1331 4.14122 21.1552 4.13674ZM15.3438 24.4532C13.2215 23.2165 4.18605 17.583 4.18605 11.3428C4.18989 8.39163 6.58132 6.00021 9.53248 5.99636C11.7931 5.99636 13.6911 7.20047 14.4837 9.13448C14.627 9.48327 14.9667 9.711 15.3438 9.711C15.7209 9.711 16.0606 9.48327 16.2039 9.13448C16.9966 7.19699 18.8945 5.99636 21.1552 5.99636C24.1063 6.00021 26.4977 8.39163 26.5016 11.3428C26.5016 17.5737 17.4638 23.2154 15.3438 24.4532Z" fill="black"/>
</g>
<defs>
<clipPath id="clip0_471_1740">
<rect width="29.754" height="29.754" fill="white" transform="translate(0.466797 0.41745)"/>
</clipPath>
</defs>
</svg>
