<svg width="26" height="26" viewBox="0 0 26 26" fill="none" xmlns="http://www.w3.org/2000/svg">
<g clip-path="url(#clip0_471_1839)">
<path fill-rule="evenodd" clip-rule="evenodd" d="M21.9319 13.6023L14.9583 20.5759C14.6555 20.8787 14.1647 20.8787 13.8619 20.5759C13.5591 20.2732 13.5591 19.7823 13.8619 19.4795L19.5134 13.829H4.33712C3.90918 13.829 3.56227 13.4821 3.56227 13.0541C3.56227 12.6262 3.90918 12.2793 4.33712 12.2793H19.5134L13.8619 6.62873C13.5591 6.32597 13.5591 5.83509 13.8619 5.53233C14.1647 5.22956 14.6555 5.22956 14.9583 5.53233L21.9319 12.5059C22.0774 12.6513 22.1592 12.8485 22.1592 13.0541C22.1592 13.2598 22.0774 13.457 21.9319 13.6023Z" fill="black"/>
</g>
<defs>
<clipPath id="clip0_471_1839">
<rect width="24.795" height="24.795" fill="white" transform="translate(0.462891 0.656616)"/>
</clipPath>
</defs>
</svg>
