<svg width="38" height="39" viewBox="0 0 38 39" fill="none" xmlns="http://www.w3.org/2000/svg">
<g clip-path="url(#clip0_109_127)">
<path d="M25.8306 0C19.1098 0 13.661 5.53427 13.661 12.3605C13.661 15.4893 14.806 18.3473 16.6939 20.5248L15.7626 21.4707L15.2017 20.901L0.310326 36.0249C-0.103442 36.4451 -0.103442 37.1255 0.310326 37.5447L1.43311 38.6851C1.84688 39.1053 2.51674 39.1053 2.92945 38.6851L17.8198 23.5612L17.2589 22.9916L18.2251 22.0103C20.3088 23.7063 22.9522 24.722 25.8306 24.722C32.5514 24.722 38.0003 19.1878 38.0003 12.3616C38.0003 5.53535 32.5514 0 25.8306 0ZM25.8306 20.9591C21.1553 20.9591 17.3648 17.1091 17.3648 12.3605C17.3648 7.61191 21.1553 3.76189 25.8306 3.76189C30.5059 3.76189 34.2965 7.61191 34.2965 12.3605C34.2965 17.1091 30.5059 20.9591 25.8306 20.9591Z" fill="#041A8F"/>
</g>
<defs>
<clipPath id="clip0_109_127">
<rect width="38" height="39" fill="white"/>
</clipPath>
</defs>
</svg>
