<svg width="31" height="31" viewBox="0 0 31 31" fill="none" xmlns="http://www.w3.org/2000/svg">
<g clip-path="url(#clip0_471_1712)">
<path fill-rule="evenodd" clip-rule="evenodd" d="M27.3059 25.0251C25.5357 21.9649 22.8079 19.7705 19.6244 18.7303C22.8611 16.8035 24.4115 12.9517 23.4123 9.31982C22.4131 5.68799 19.1106 3.17133 15.3438 3.17133C11.577 3.17133 8.27449 5.68799 7.27529 9.31982C6.27609 12.9517 7.82652 16.8035 11.0632 18.7303C7.87974 19.7693 5.1519 21.9637 3.38176 25.0251C3.20504 25.3133 3.19862 25.6746 3.365 25.9689C3.53138 26.2631 3.84435 26.4439 4.18236 26.441C4.52038 26.4381 4.8302 26.252 4.9915 25.9549C7.18121 22.1706 11.0516 19.9111 15.3438 19.9111C19.6361 19.9111 23.5064 22.1706 25.6961 25.9549C25.8574 26.252 26.1673 26.4381 26.5053 26.441C26.8433 26.4439 27.1563 26.2631 27.3226 25.9689C27.489 25.6746 27.4826 25.3133 27.3059 25.0251ZM8.83512 11.5428C8.83512 7.94817 11.7492 5.03412 15.3438 5.03412C18.9385 5.03412 21.8525 7.94817 21.8525 11.5428C21.8525 15.1375 18.9385 18.0515 15.3438 18.0515C11.7508 18.0477 8.83896 15.1359 8.83512 11.5428Z" fill="black"/>
</g>
<defs>
<clipPath id="clip0_471_1712">
<rect width="29.754" height="29.754" fill="white" transform="translate(0.466797 0.385086)"/>
</clipPath>
</defs>
</svg>
