<svg width="31" height="31" viewBox="0 0 31 31" fill="none" xmlns="http://www.w3.org/2000/svg">
<g clip-path="url(#clip0_471_1726)">
<path fill-rule="evenodd" clip-rule="evenodd" d="M26.5016 14.3485V16.2081C26.5016 16.7216 26.0853 17.1379 25.5718 17.1379H5.11587C4.60234 17.1379 4.18605 16.7216 4.18605 16.2081V14.3485C4.18605 13.835 4.60234 13.4187 5.11587 13.4187H25.5718C26.0853 13.4187 26.5016 13.835 26.5016 14.3485ZM25.5718 20.8572H5.11587C4.60234 20.8572 4.18605 21.2735 4.18605 21.787V23.6466C4.18605 24.1601 4.60234 24.5764 5.11587 24.5764H25.5718C26.0853 24.5764 26.5016 24.1601 26.5016 23.6466V21.787C26.5016 21.2735 26.0853 20.8572 25.5718 20.8572ZM25.5718 5.98016H5.11587C4.60234 5.98016 4.18605 6.39645 4.18605 6.90997V8.7696C4.18605 9.28312 4.60234 9.69941 5.11587 9.69941H25.5718C26.0853 9.69941 26.5016 9.28312 26.5016 8.7696V6.90997C26.5016 6.39645 26.0853 5.98016 25.5718 5.98016Z" fill="black"/>
</g>
<defs>
<clipPath id="clip0_471_1726">
<rect width="29.754" height="29.754" fill="white" transform="translate(0.466797 0.401276)"/>
</clipPath>
</defs>
</svg>
