<?xml version="1.0" encoding="UTF-8"?>
<svg id="Calque_1" data-name="Calque 1" xmlns="http://www.w3.org/2000/svg" viewBox="0 0 70 70">
  <defs>
    <style>
      .cls-1 {
        fill: #041a8f;
      }

      .cls-2 {
        fill: #fff;
      }

      .cls-3, .cls-4 {
        fill: none;
        stroke: #fff;
        stroke-linejoin: round;
      }

      .cls-4 {
        stroke-linecap: round;
      }
    </style>
  </defs>
  <circle class="cls-1" cx="35" cy="35" r="35"/>
  <g>
    <polygon class="cls-3" points="25.9 25.4 25.9 50 24.5 50.7 24.6 26.5 25.9 25.4"/>
    <polyline class="cls-3" points="24.5 26.5 14.5 26.5 14.5 50.7 24.5 50.7"/>
    <polyline class="cls-4" points="14.5 26.5 19.5 21.5 25.9 21.5"/>
    <rect class="cls-2" x="15.6" y="32.9" width="2.1" height="4.2"/>
    <rect class="cls-2" x="18.5" y="32.9" width="2.1" height="4.2"/>
    <rect class="cls-2" x="21.5" y="32.9" width="2.1" height="4.2"/>
    <rect class="cls-2" x="15.6" y="37.9" width="2.1" height="4.2"/>
    <rect class="cls-2" x="18.5" y="37.9" width="2.1" height="4.2"/>
    <rect class="cls-2" x="21.5" y="37.9" width="2.1" height="4.2"/>
    <rect class="cls-2" x="17.8" y="44.8" width="3.5" height="5.9"/>
    <polygon class="cls-3" points="41.9 11.8 42 22.8 36.5 27.3 36.5 27.5 36.4 50.3 36 50.8 36 16.8 41.9 11.8"/>
    <polyline class="cls-3" points="35.9 50.8 32.4 50.8 28.9 50.8 25.9 50.8 25.9 36.4"/>
    <polyline class="cls-3" points="35.9 16.8 25.9 16.8 25.9 21.5 25.9 25.4"/>
    <polyline class="cls-4" points="41.9 11.8 30.8 11.8 25.9 16.8"/>
    <rect class="cls-2" x="26.9" y="23.2" width="2.1" height="4.2"/>
    <rect class="cls-2" x="29.9" y="23.2" width="2.1" height="4.2"/>
    <rect class="cls-2" x="32.9" y="23.2" width="2.1" height="4.2"/>
    <rect class="cls-2" x="26.9" y="28.3" width="2.1" height="4.2"/>
    <rect class="cls-2" x="29.9" y="28.3" width="2.1" height="4.2"/>
    <rect class="cls-2" x="32.9" y="28.3" width="2.1" height="4.2"/>
    <rect class="cls-2" x="26.9" y="33.3" width="2.1" height="4.2"/>
    <rect class="cls-2" x="29.8" y="33.3" width="2.1" height="4.2"/>
    <rect class="cls-2" x="32.8" y="33.3" width="2.1" height="4.2"/>
    <rect class="cls-2" x="28.9" y="44.9" width="3.5" height="5.9"/>
    <path class="cls-3" d="M42.5,27.3l-.1,23.5c-2.7.9-3.6.5-6,0v-.5l.1-23c2,.4,3.3.8,5.5.2.2,0,.4-.1.5-.2Z"/>
    <path class="cls-3" d="M42.5,27.3c-.2.1-.3.1-.5.2l.5-.2h0Z"/>
    <polygon class="cls-3" points="42.5 27.3 42.4 44.8 42.4 44.8 42.5 27.3"/>
    <path class="cls-3" d="M45.7,27.6h0c-.5,0-.9-.1-1.4-.2.5.1,1,.2,1.4.2Z"/>
    <polygon class="cls-3" points="48.6 23.4 43.8 27.3 43.7 49.5 42.4 50.8 42.5 27.3 42.5 27.3 46.1 24.4 48.6 22.3 48.6 23.4"/>
    <path class="cls-3" d="M36.5,27.3v.1c-.2,0-.3-.1-.5-.1h.5Z"/>
    <path class="cls-3" d="M42.5,27.3c-2.2.7-4,.4-6,0h0l5.5-4.6.5-.4v1.8c.8.6,2.5.5,3.6.3l-3.6,2.9h0"/>
    <line class="cls-3" x1="42.5" y1="24.1" x2="38.3" y2="27.7"/>
    <path class="cls-3" d="M49.8,44.8l.1-11.3-.1,17.3c-2.7.9-3.6.5-6,0v-1.3l.1-22.2c.2,0,.3.1.5.1.5.1.9.2,1.3.3.9.2,1.8.2,2.9,0,.3,0,.5-.1.8-.2l.5-.2-.1,17.5h0Z"/>
    <polygon class="cls-3" points="49.9 27.3 49.9 32.9 49.9 33.5 49.8 44.8 49.8 44.8 49.9 27.3"/>
    <polygon class="cls-3" points="49.9 27.3 49.9 32.9 49.9 33.5 49.8 44.8 49.8 44.8 49.9 27.3"/>
    <polygon class="cls-3" points="56 22.3 55.8 44.8 49.8 50.8 49.9 33.5 49.9 32.9 49.9 27.3 49.9 27.3 53.5 24.4 56 22.3"/>
    <path class="cls-3" d="M49.9,22.3v1.8l-1.3,1.1-2.9,2.5c-.5-.1-.9-.1-1.4-.2-.2,0-.3-.1-.5-.1l4.7-3.9.8-.7c.1-.1.6-.5.6-.5Z"/>
    <path class="cls-3" d="M53.5,24.4l-3.6,2.9h0l-.5.2c-.3.1-.6.2-.8.2-1.1.2-2,.2-2.9,0h0l2.9-2.5,1.3-1.1c.8.6,2.5.5,3.6.3h0Z"/>
    <rect class="cls-2" x="15.6" y="27.8" width="2.1" height="4.2"/>
    <rect class="cls-2" x="18.6" y="27.8" width="2.1" height="4.2"/>
    <rect class="cls-2" x="21.6" y="27.8" width="2.1" height="4.2"/>
    <rect class="cls-2" x="26.8" y="38.3" width="2.1" height="4.2"/>
    <rect class="cls-2" x="29.8" y="38.3" width="2.1" height="4.2"/>
    <rect class="cls-2" x="32.8" y="38.3" width="2.1" height="4.2"/>
    <rect class="cls-2" x="26.9" y="18.2" width="2.1" height="4.2"/>
    <rect class="cls-2" x="29.8" y="18.2" width="2.1" height="4.2"/>
    <rect class="cls-2" x="32.8" y="18.2" width="2.1" height="4.2"/>
  </g>
</svg>